<svg width="24" height="24" viewBox="0 0 24 24" fill="none" xmlns="http://www.w3.org/2000/svg">
<path d="M15.75 9.75H8.25C6.59315 9.75 5.25 11.0931 5.25 12.75V13.5C5.25 15.1569 6.59315 16.5 8.25 16.5H15.75C17.4069 16.5 18.75 15.1569 18.75 13.5V12.75C18.75 11.0931 17.4069 9.75 15.75 9.75Z" stroke="white" stroke-width="2" stroke-linecap="round" stroke-linejoin="round"/>
<path d="M8.625 14.25C9.24632 14.25 9.75 13.7463 9.75 13.125C9.75 12.5037 9.24632 12 8.625 12C8.00368 12 7.5 12.5037 7.5 13.125C7.5 13.7463 8.00368 14.25 8.625 14.25Z" fill="white"/>
<path d="M15.375 14.25C15.9963 14.25 16.5 13.7463 16.5 13.125C16.5 12.5037 15.9963 12 15.375 12C14.7537 12 14.25 12.5037 14.25 13.125C14.25 13.7463 14.7537 14.25 15.375 14.25Z" fill="white"/>
<path d="M2.25 6C2.25 5.40326 2.48705 4.83097 2.90901 4.40901C3.33097 3.98705 3.90326 3.75 4.5 3.75C5.09674 3.75 5.66903 3.98705 6.09099 4.40901C6.51295 4.83097 6.75 5.40326 6.75 6H17.25C17.25 5.40326 17.4871 4.83097 17.909 4.40901C18.331 3.98705 18.9033 3.75 19.5 3.75C20.0967 3.75 20.669 3.98705 21.091 4.40901C21.5129 4.83097 21.75 5.40326 21.75 6V13.5C21.75 15.0913 21.1179 16.6174 19.9926 17.7426C18.8674 18.8679 17.3413 19.5 15.75 19.5H8.25C6.6587 19.5 5.13258 18.8679 4.00736 17.7426C2.88214 16.6174 2.25 15.0913 2.25 13.5V6Z" stroke="white" stroke-width="2" stroke-linecap="round" stroke-linejoin="round"/>
</svg>
