<svg width="24" height="24" viewBox="0 0 24 24" fill="none" xmlns="http://www.w3.org/2000/svg">
<path d="M8.73458 11.5156C8.15642 10.0735 8.09391 8.476 8.55762 6.99314C9.02133 5.51029 9.98281 4.23301 11.2795 3.37722C12.5763 2.52143 14.1287 2.13961 15.6745 2.29631C17.2202 2.453 18.6644 3.1386 19.7631 4.23721C20.8617 5.33582 21.5473 6.78006 21.7039 8.32581C21.8606 9.87156 21.4788 11.424 20.623 12.7207C19.7672 14.0175 18.49 14.9789 17.0071 15.4426C15.5242 15.9063 13.9268 15.8438 12.4847 15.2657L12.4847 15.2655L11.2502 16.5H9.00024V18.75H6.75024V21H3.00024V17.25L8.73474 11.5155L8.73458 11.5156Z" stroke="white" stroke-width="2" stroke-linecap="round" stroke-linejoin="round"/>
<path d="M16.875 8.25C17.4963 8.25 18 7.74632 18 7.125C18 6.50368 17.4963 6 16.875 6C16.2537 6 15.75 6.50368 15.75 7.125C15.75 7.74632 16.2537 8.25 16.875 8.25Z" fill="white"/>
</svg>
