<svg width="24" height="24" viewBox="0 0 24 24" fill="none" xmlns="http://www.w3.org/2000/svg">
<path d="M8.81763 15.1811L15.1816 8.81717" stroke="white" stroke-width="2" stroke-linecap="round" stroke-linejoin="round"/>
<path d="M13.5904 16.7728L10.9388 19.4245C10.0948 20.2682 8.95028 20.7421 7.75694 20.742C6.5636 20.7419 5.41916 20.2678 4.57534 19.4239C3.73152 18.5801 3.25743 17.4357 3.25732 16.2423C3.25722 15.049 3.73112 13.9045 4.5748 13.0605L7.22645 10.4089" stroke="white" stroke-width="2" stroke-linecap="round" stroke-linejoin="round"/>
<path d="M16.7729 13.5904L19.4246 10.9387C20.2682 10.0948 20.7421 8.95026 20.742 7.75692C20.7419 6.56358 20.2678 5.41915 19.424 4.57533C18.5802 3.73151 17.4358 3.25741 16.2424 3.25731C15.0491 3.25721 13.9046 3.73111 13.0606 4.57478L10.4089 7.22643" stroke="white" stroke-width="2" stroke-linecap="round" stroke-linejoin="round"/>
</svg>
